HIERARCHY
ROOT joint_Root
{
	OFFSET 0.0 0.0 0.0
	CHANNELS 6 Xposition Yposition Zposition Zrotation Xrotation Yrotation 
	JOINT Hips
	{
		OFFSET -17.1583 93.1646 452.98
		CHANNELS 6 Xposition Yposition Zposition Zrotation Xrotation Yrotation 
		JOINT Spine
		{
			OFFSET 15.7357 0.0 0.0
			CHANNELS 6 Xposition Yposition Zposition Zrotation Xrotation Yrotation 
			JOINT Chest
			{
				OFFSET 8.98455 -0.406207 0.0
				CHANNELS 6 Xposition Yposition Zposition Zrotation Xrotation Yrotation 
				JOINT Neck
				{
					OFFSET 16.3773 0.0 0.0
					CHANNELS 6 Xposition Yposition Zposition Zrotation Xrotation Yrotation 
					JOINT Head
					{
						OFFSET 6.45672 0.0 0.0
						CHANNELS 6 Xposition Yposition Zposition Zrotation Xrotation Yrotation 
						End Site
						{
							OFFSET 0.0 0.0 0.0
						}
					}
				}
				JOINT Shoulder_L
				{
					OFFSET 12.9942 -0.242716 4.98039
					CHANNELS 6 Xposition Yposition Zposition Zrotation Xrotation Yrotation 
					JOINT UpperArm_L
					{
						OFFSET 5.34809 0.0 0.0
						CHANNELS 6 Xposition Yposition Zposition Zrotation Xrotation Yrotation 
						JOINT LowerArm_L
						{
							OFFSET 24.3286 1.87007e-05 0.0
							CHANNELS 6 Xposition Yposition Zposition Zrotation Xrotation Yrotation 
							JOINT Hand_L
							{
								OFFSET 22.2916 0.0 0.0
								CHANNELS 6 Xposition Yposition Zposition Zrotation Xrotation Yrotation 
								End Site
								{
									OFFSET 0.0 0.0 0.0
								}
							}
						}
					}
				}
				JOINT Shoulder_R
				{
					OFFSET 12.9945 -0.242716 -4.98039
					CHANNELS 6 Xposition Yposition Zposition Zrotation Xrotation Yrotation 
					JOINT UpperArm_R
					{
						OFFSET -5.34813 0.0 0.0
						CHANNELS 6 Xposition Yposition Zposition Zrotation Xrotation Yrotation 
						JOINT LowerArm_R
						{
							OFFSET -24.3289 0.000322201 0.0
							CHANNELS 6 Xposition Yposition Zposition Zrotation Xrotation Yrotation 
							JOINT Hand_R
							{
								OFFSET -22.2915 -0.000108084 0.0
								CHANNELS 6 Xposition Yposition Zposition Zrotation Xrotation Yrotation 
								End Site
								{
									OFFSET 0.0 0.0 0.0
								}
							}
						}
					}
				}
			}
		}
		JOINT UpperLeg_L
		{
			OFFSET -2.19248 -6.46944 0.0
			CHANNELS 6 Xposition Yposition Zposition Zrotation Xrotation Yrotation 
			JOINT LowerLeg_L
			{
				OFFSET 39.0811 0.0 -1.23785e-05
				CHANNELS 6 Xposition Yposition Zposition Zrotation Xrotation Yrotation 
				JOINT Foot_L
				{
					OFFSET 40.9854 0.0 -1.26872e-05
					CHANNELS 6 Xposition Yposition Zposition Zrotation Xrotation Yrotation 
					JOINT Toes_L
					{
						OFFSET 11.7543 0.0 0.0
						CHANNELS 6 Xposition Yposition Zposition Zrotation Xrotation Yrotation 
						End Site
						{
							OFFSET 0.0 0.0 0.0
						}
					}
				}
			}
		}
		JOINT UpperLeg_R
		{
			OFFSET -2.19251 6.46944 0.0
			CHANNELS 6 Xposition Yposition Zposition Zrotation Xrotation Yrotation 
			JOINT LowerLeg_R
			{
				OFFSET -39.0811 -0.00228153 -0.0401928
				CHANNELS 6 Xposition Yposition Zposition Zrotation Xrotation Yrotation 
				JOINT Foot_R
				{
					OFFSET -40.9854 0.0 0.0
					CHANNELS 6 Xposition Yposition Zposition Zrotation Xrotation Yrotation 
					JOINT Toes_R
					{
						OFFSET -11.7543 0.0 0.0
						CHANNELS 6 Xposition Yposition Zposition Zrotation Xrotation Yrotation 
						End Site
						{
							OFFSET 0.0 0.0 0.0
						}
					}
				}
			}
		}
	}
}
MOTION
Frames:	6
Frame Time:	0.0333333
0.000000 0.000000 0.000000 0.000000 0.000000 -0.000000 -3.885140 92.024100 -0.762990 84.818500 0.013713 3.638100 15.735700 0.000005 -0.000001 75.618400 86.951700 -72.969300 8.984550 -0.406207 -0.000000 -1.815110 -1.735250 5.269850 16.377300 -0.000001 -0.000001 9.075510 2.394730 -9.610500 6.456720 -0.000001 -0.000000 3.962490 0.151290 -16.875200 12.994200 -0.242716 4.980390 -92.942200 8.058230 -69.865000 5.348090 -0.000007 -0.000001 -69.720800 -0.349014 1.946580 24.328600 0.000019 0.000005 50.978400 -38.770100 -116.906000 22.291600 -0.000001 0.000005 63.379300 4.538010 15.976500 12.994500 -0.242716 -4.980390 88.232900 5.268150 -71.427600 -5.348130 -0.000001 -0.000004 -70.410000 26.465000 -3.792860 -24.328900 0.000322 -0.000009 1.543640 5.614240 -15.410600 -22.291500 -0.000108 -0.000004 1.555450 5.239590 1.706310 -2.192480 -6.469440 -0.000000 -171.437000 1.910730 -4.011500 39.081100 -0.000007 -0.000012 0.272281 -0.529846 27.198500 40.985400 -0.000006 -0.000013 -0.682929 11.219400 -75.245900 11.754300 -0.000000 0.000003 0.000325 0.161962 -10.008000 -2.192510 6.469440 -0.000001 -170.243000 5.402110 -177.053000 -39.081100 -0.002282 -0.040193 0.128102 -0.461949 15.115000 -40.985400 0.000008 0.000006 5.492600 -0.479704 -70.636900 -11.754300 -0.000006 -0.000006 -0.008222 0.257504 -6.115090
0.000000 0.000000 0.000000 0.000000 0.000000 -0.000000 -3.903010 92.008800 -0.753562 84.849300 0.072926 3.702300 15.735700 0.000005 -0.000001 75.424900 86.925100 -72.765100 8.984550 -0.406207 -0.000000 -1.767820 -1.768350 5.291490 16.377300 -0.000001 -0.000001 9.104290 2.452270 -9.607250 6.456720 -0.000001 -0.000000 3.991690 0.299359 -16.954700 12.994200 -0.242716 4.980390 -92.926000 8.029970 -69.902300 5.348090 -0.000007 -0.000001 -70.161200 -1.945260 1.411720 24.328600 0.000019 0.000005 36.816500 -31.944800 -125.255000 22.291600 -0.000001 0.000005 59.516900 4.274680 20.199600 12.994500 -0.242716 -4.980390 88.239700 5.265420 -71.485300 -5.348130 -0.000001 -0.000004 -70.418700 26.427000 -3.781070 -24.328900 0.000322 -0.000009 1.558310 5.660940 -15.428200 -22.291500 -0.000108 -0.000004 1.562260 5.240240 1.689350 -2.192480 -6.469440 -0.000000 -171.453000 1.960830 -3.982270 39.081100 -0.000007 -0.000012 0.273079 -0.530087 27.256100 40.985400 -0.000006 -0.000013 -0.700258 11.258800 -75.255700 11.754300 -0.000000 0.000003 0.000277 0.162820 -9.973140 -2.192510 6.469440 -0.000001 -170.250000 5.399130 -177.060000 -39.081100 -0.002282 -0.040193 0.130587 -0.467121 15.239400 -40.985400 0.000008 0.000006 5.491660 -0.602286 -70.600500 -11.754300 -0.000006 -0.000006 -0.007893 0.254821 -6.224680
0.000000 0.000000 0.000000 0.000000 0.000000 -0.000000 -3.921990 92.012200 -0.753645 84.861000 0.133039 3.754040 15.735700 0.000005 -0.000001 75.573500 86.921100 -72.917900 8.984550 -0.406207 -0.000000 -1.756460 -1.754290 5.283350 16.377300 -0.000001 -0.000001 9.148820 2.477030 -9.542020 6.456720 -0.000001 -0.000000 4.000810 0.364050 -16.808300 12.994200 -0.242716 4.980390 -92.893300 7.940950 -69.905800 5.348090 -0.000007 -0.000001 -70.614800 -4.047820 0.879978 24.328600 0.000019 0.000005 23.783100 -23.058000 -131.629000 22.291600 -0.000001 0.000005 56.536800 4.005930 24.148800 12.994500 -0.242716 -4.980390 88.224000 5.308790 -71.472300 -5.348130 -0.000001 -0.000004 -70.371400 26.529400 -3.724350 -24.328900 0.000322 -0.000009 1.555670 5.633400 -15.474700 -22.291500 -0.000108 -0.000004 1.568450 5.239870 1.699090 -2.192480 -6.469440 -0.000000 -171.447000 1.936710 -3.919380 39.081100 -0.000007 -0.000012 0.270625 -0.526233 27.215800 40.985400 -0.000006 -0.000013 -0.656532 11.320800 -75.250200 11.754300 -0.000000 0.000003 0.000396 0.160661 -10.060800 -2.192510 6.469440 -0.000001 -170.258000 5.433770 -176.995000 -39.081100 -0.002282 -0.040193 0.130289 -0.466850 15.213800 -40.985400 0.000008 0.000006 5.498020 -0.605355 -70.656200 -11.754300 -0.000006 -0.000006 -0.008173 0.257104 -6.131420
0.000000 0.000000 0.000000 0.000000 0.000000 -0.000000 -3.930240 92.006900 -0.751704 84.884900 0.188010 3.769530 15.735700 0.000005 -0.000001 75.704800 86.929300 -73.055000 8.984550 -0.406207 -0.000000 -1.769420 -1.736390 5.271960 16.377300 -0.000001 -0.000001 9.174790 2.497100 -9.442130 6.456720 -0.000001 -0.000000 4.039660 0.374632 -16.628400 12.994200 -0.242716 4.980390 -92.858900 7.825110 -69.857400 5.348090 -0.000007 -0.000001 -71.050500 -5.341100 0.515594 24.328600 0.000019 0.000005 20.367800 -19.962500 -132.601000 22.291600 -0.000001 0.000005 55.172000 3.779220 27.283800 12.994500 -0.242716 -4.980390 88.229800 5.298550 -71.496200 -5.348130 -0.000001 -0.000004 -70.380700 26.479700 -3.663390 -24.328900 0.000322 -0.000009 1.551780 5.622410 -15.466600 -22.291500 -0.000108 -0.000004 1.600020 5.239910 1.698020 -2.192480 -6.469440 -0.000000 -171.470000 1.975170 -3.919280 39.081100 -0.000007 -0.000012 0.273894 -0.532363 27.225700 40.985400 -0.000006 -0.000013 -0.610168 11.337800 -75.273400 11.754300 -0.000000 0.000003 0.000217 0.163896 -9.929460 -2.192510 6.469440 -0.000001 -170.316000 5.657070 -177.018000 -39.081100 -0.002282 -0.040193 0.130484 -0.465519 15.277600 -40.985400 0.000008 0.000006 5.526140 -0.430123 -70.660400 -11.754300 -0.000006 -0.000006 -0.008071 0.256281 -6.165060
0.000000 0.000000 0.000000 0.000000 0.000000 -0.000000 -3.941710 92.014100 -0.745685 84.882000 0.281463 3.741360 15.735700 0.000005 -0.000001 75.663800 86.942500 -73.023800 8.984550 -0.406207 -0.000000 -1.796300 -1.733920 5.251980 16.377300 -0.000001 -0.000001 9.096560 2.482560 -9.300710 6.456720 -0.000001 -0.000000 4.127100 0.342720 -16.448400 12.994200 -0.242716 4.980390 -92.858100 7.856830 -69.936900 5.348090 -0.000007 -0.000001 -70.949300 -4.750890 0.631955 24.328600 0.000019 0.000005 24.291100 -22.907900 -130.777000 22.291600 -0.000001 0.000005 54.798500 3.816160 26.781300 12.994500 -0.242716 -4.980390 88.227500 5.306480 -71.498900 -5.348130 -0.000001 -0.000004 -70.372900 26.479900 -3.651330 -24.328900 0.000322 -0.000009 1.564140 5.692330 -15.402100 -22.291500 -0.000108 -0.000004 1.667470 5.239690 1.703630 -2.192480 -6.469440 -0.000000 -171.459000 2.039140 -3.959970 39.081100 -0.000007 -0.000012 0.273442 -0.531762 27.213500 40.985400 -0.000006 -0.000013 -0.711440 11.370100 -75.270600 11.754300 -0.000000 0.000003 0.000168 0.164740 -9.895180 -2.192510 6.469440 -0.000001 -170.300000 5.730600 -176.986000 -39.081100 -0.002282 -0.040193 0.128979 -0.463717 15.161000 -40.985400 0.000008 0.000006 5.528820 -0.475020 -70.648200 -11.754300 -0.000006 -0.000006 -0.008126 0.256722 -6.147030
0.000000 0.000000 0.000000 0.000000 0.000000 -0.000000 -3.933690 92.007000 -0.743488 84.861800 0.281823 3.729370 15.735700 0.000005 -0.000001 75.706500 86.931300 -73.079700 8.984550 -0.406207 -0.000000 -1.773690 -1.733430 5.225860 16.377300 -0.000001 -0.000001 9.006490 2.448060 -9.186750 6.456720 -0.000001 -0.000000 4.068320 0.403435 -16.222700 12.994200 -0.242716 4.980390 -92.915100 8.031430 -69.975200 5.348090 -0.000007 -0.000001 -70.233900 -2.724250 1.132320 24.328600 0.000019 0.000005 31.397300 -28.494900 -128.013000 22.291600 -0.000001 0.000005 56.507000 4.024120 23.891000 12.994500 -0.242716 -4.980390 88.222300 5.318820 -71.488300 -5.348130 -0.000001 -0.000004 -70.324200 26.586700 -3.744600 -24.328900 0.000322 -0.000009 1.544360 5.641620 -15.346300 -22.291500 -0.000108 -0.000004 1.704610 5.239260 1.714960 -2.192480 -6.469440 -0.000000 -171.450000 2.042830 -3.984030 39.081100 -0.000007 -0.000012 0.277114 -0.538109 27.247900 40.985400 -0.000006 -0.000013 -0.615757 11.350500 -75.295700 11.754300 -0.000000 0.000003 0.000357 0.161373 -10.031900 -2.192510 6.469440 -0.000001 -170.279000 5.716090 -177.031000 -39.081100 -0.002282 -0.040193 0.130024 -0.465791 15.216400 -40.985400 0.000008 0.000006 5.523910 -0.488793 -70.654700 -11.754300 -0.000006 -0.000006 -0.008134 0.256790 -6.144240
